<?xml version="1.0" encoding="iso-8859-1"?>
<!-- Generator: Adobe Illustrator 19.0.0, SVG Export Plug-In . SVG Version: 6.00 Build 0)  -->
<svg version="1.1" id="Layer_1" xmlns="http://www.w3.org/2000/svg" xmlns:xlink="http://www.w3.org/1999/xlink" x="0px" y="0px"
	 viewBox="0 0 512 512" style="enable-background:new 0 0 512 512;" xml:space="preserve">
<g>
	<g>
		<path d="M256,0C114.842,0,0,114.842,0,256s114.842,256,256,256s256-114.842,256-256S397.158,0,256,0z M256,37.463
			c82.001,0,153.585,45.407,190.966,112.39H318.439c-14.968,0-28.199,7.568-36.081,19.073c-7.865-4.197-16.836-6.585-26.358-6.585
			s-18.493,2.388-26.358,6.585c-7.882-11.505-21.113-19.073-36.081-19.073H65.034C102.415,82.87,173.999,37.463,256,37.463z
			 M312.195,193.561c0-3.443,2.801-6.244,6.244-6.244H425.03c-0.293,2.041-0.445,4.125-0.445,6.244v37.463
			c0,30.987-25.208,56.195-56.195,56.195c-30.987,0-56.195-25.208-56.195-56.195L312.195,193.561L312.195,193.561z M86.97,187.317
			h106.591c3.443,0,6.244,2.801,6.244,6.244v37.463c0,30.987-25.208,56.195-56.195,56.195s-56.195-25.208-56.195-56.195v-37.463
			C87.415,191.442,87.264,189.358,86.97,187.317z M256,474.537c-120.501,0-218.537-98.036-218.537-218.537
			c0-23.353,3.696-45.857,10.511-66.973c1.21,1.14,1.977,2.745,1.977,4.534v37.463c0,51.643,42.015,93.659,93.659,93.659
			s93.659-42.015,93.659-93.659v-12.488c0-10.329,8.403-18.732,18.732-18.732s18.732,8.403,18.732,18.732v12.488
			c0,51.643,42.015,93.659,93.659,93.659c51.643,0,93.659-42.015,93.659-93.659v-37.463c0-1.789,0.767-3.394,1.977-4.534
			c6.813,21.117,10.511,43.62,10.511,66.973C474.537,376.501,376.501,474.537,256,474.537z"/>
	</g>
</g>
<g>
	<g>
		<path d="M339.256,335.306c-16.99,32.929-47.335,51.816-83.256,51.816c-35.922,0-66.267-18.885-83.256-51.814l-33.293,17.176
			c23.291,45.148,66.861,72.102,116.549,72.102c49.686,0,93.256-26.954,116.549-72.101L339.256,335.306z"/>
	</g>
</g>
<g>
</g>
<g>
</g>
<g>
</g>
<g>
</g>
<g>
</g>
<g>
</g>
<g>
</g>
<g>
</g>
<g>
</g>
<g>
</g>
<g>
</g>
<g>
</g>
<g>
</g>
<g>
</g>
<g>
</g>
</svg>
