<?xml version="1.0" encoding="UTF-8"?>
<svg width="371.33" height="304.12" viewBox="0 0 371.329 304.117" xmlns="http://www.w3.org/2000/svg">
 <path d="m139.72 220.17c-46.668-44.201-76.82 6.756-107.44-10.668-25.833-20.167-6.5-50.667 8.084-63.375 27.671-24.111-8.598-14.341-11.461-13.535-8.613 2.423-43.598 47.05-17.232 81.688 36.677 48.183 69.314-6.802 113.66 24.249 37.702 26.397 13.667-17.328 14.389-18.359z" fill="#794522" stroke="#010101" stroke-width="4"/>
 <path d="m11.669 214.27c36.675 48.184 69.316-6.784 113.67 24.266 23.796 16.662 22.988 5.39 19.343-5.452-0.737 4.856-5.87 5.731-21.186-4.992-44.35-31.051-76.991 23.918-113.67-24.267-3.708-4.871-6.202-9.941-7.728-15.062 0.539 8.607 3.343 17.327 9.57 25.507z" fill="#010101" fill-opacity=".3137"/>
 <path d="m342 160.92c0.046 68.145-55.158 123.42-123.3 123.47-68.145 0.046-123.42-55.158-123.47-123.3v-0.166c-0.046-68.144 55.159-123.42 123.3-123.47 68.144-0.046 123.42 55.16 123.47 123.3v0.164z" fill="#794522" stroke="#010101" stroke-linecap="round" stroke-linejoin="round" stroke-width="4"/>
 <path d="m326.78 102.3c3.203 10.975 4.906 22.589 4.906 34.594 0 68.108-55.266 123.38-123.38 123.38-46.824 0-87.598-26.132-108.5-64.594 15.023 51.2 62.367 88.625 118.41 88.625 68.109 0 123.38-55.267 123.38-123.38 0-21.21-5.373-41.187-14.812-58.625z" fill="#010101" fill-opacity=".3137"/>
 <path d="m319.26 89.999c-11.738-12.387 74.901 82.724 42.941 116.58-24.941 26.421-47 39-56 30l6-25s28-20 19-29-19-19-19-28" fill="#794522" stroke="#010101" stroke-linecap="round" stroke-width="4"/>
 <path d="m359.76 156.75c1.75-1 10 8.25 10 36 0 13.432-45.061 47.424-57.25 47.75 6.031-2.515 62.75-40 47.25-83.75z" fill="#010101" fill-opacity=".3137"/>
 <path d="m300.866,209.176c12.368-3.434 23.364,5.033 29.446,16.896 6.954,13.571 1.587,30.228-11.98,37.182-13.568,6.955-18.728-4.306-25.683-17.873-2.314-4.519-9.197-17.371-10.842-20.579-3.466-6.762-6.521-12.126.242-15.593 5.588-2.864 14.725-4.4 18.817-.033z" fill="#a05b2c" stroke="#010101" stroke-linecap="round" stroke-linejoin="round" stroke-width="4"/>
 <path d="m298.51 253.47c8.267-1.45 15.301-8.24 15.301-8.24" fill="#a05b2c" stroke="#010101" stroke-linecap="round" stroke-width="4"/>
 <path d="m291.67 244.05c10.112-8.599 20.813-10.182 20.813-10.182" fill="#a05b2c" stroke="#010101" stroke-linecap="round" stroke-width="4"/>
 <path d="m287.78 233.54c5.878-10.023 15.451-8.922 15.451-8.922" fill="#a05b2c" stroke="#010101" stroke-linecap="round" stroke-width="4"/>
 <path d="m282.2 222.64c4.812-9.477 13.512-7.93 13.512-7.93" fill="#a05b2c" stroke="#010101" stroke-linecap="round" stroke-width="4"/>
 <path d="m333.16 235.12c-0.743 5.145-2.818 15.493-5.835 20.626-7.443 12.662-14.532 11.181-22.848 6.705 10.879-8e-3 22.221-19.395 28.683-27.331z" fill="#010101" fill-opacity=".3137"/>
 <path d="m117.52 89.999c11.738-12.386-74.901 82.725-42.941 116.58 24.941 26.421 47 39 56 30l-6-25s-28-20-19-29 19-19 19-28" fill="#794522" stroke="#010101" stroke-linecap="round" stroke-width="4"/>
 <path d="m135.92,209.176c-12.368-3.434-23.364,5.033-29.446,16.896-6.954,13.571-1.587,30.228 11.98,37.182 13.568,6.955 18.728-4.306 25.683-17.873 2.314-4.519 9.197-17.371 10.842-20.579 3.466-6.762 6.521-12.126-.242-15.593-5.588-2.864-14.725-4.4-18.817-.033z" fill="#a05b2c" stroke="#010101" stroke-linecap="round" stroke-linejoin="round" stroke-width="4"/>
 <path d="m138.28 253.47c-8.267-1.45-15.301-8.24-15.301-8.24" fill="#a05b2c" stroke="#010101" stroke-linecap="round" stroke-width="4"/>
 <path d="m145.11 244.05c-10.112-8.599-20.813-10.182-20.813-10.182" fill="#a05b2c" stroke="#010101" stroke-linecap="round" stroke-width="4"/>
 <path d="m149 233.54c-5.878-10.023-15.451-8.922-15.451-8.922" fill="#a05b2c" stroke="#010101" stroke-linecap="round" stroke-width="4"/>
 <path d="m154.58 222.64c-4.812-9.477-13.512-7.93-13.512-7.93" fill="#a05b2c" stroke="#010101" stroke-linecap="round" stroke-width="4"/>
 <path d="m103.63 235.12c0.743 5.145 2.818 15.493 5.835 20.626 7.443 12.662 14.532 11.181 22.848 6.705-10.879-8e-3 -22.221-19.395-28.683-27.331z" fill="#010101" fill-opacity=".3137"/>
 <path d="m147.31 27.978c-14.965 0-27.116 12.15-27.116 27.117 0 9.685 5.088 18.175 12.733 22.971-8.083 14.287-12.733 30.776-12.733 48.353 0 54.329 44.067 98.438 98.398 98.438s98.439-44.109 98.439-98.438c0-17.577-4.651-34.066-12.733-48.353 7.628-4.8 12.733-13.299 12.733-22.971 0-14.967-12.152-27.117-27.116-27.117-9.673 0-18.13 5.104-22.929 12.733-14.295-8.094-30.806-12.733-48.395-12.733s-34.063 4.643-48.354 12.733c-4.797-7.629-13.254-12.733-22.927-12.733z" fill="#794522" stroke="#010101" stroke-linecap="round" stroke-linejoin="round" stroke-width="4"/>
 <path d="m290.24 39.481c-5.438 0-10.188 2.865-12.897 7.147 8.318 5.602 15.478 12.755 21.075 21.075 4.268-2.712 7.112-7.503 7.112-12.931 0-8.438-6.852-15.291-15.29-15.291z" fill="#a05b2c" stroke="#010101" stroke-linecap="round" stroke-linejoin="round" stroke-width="4"/>
 <path d="m147.24 39.481c5.438 0 10.188 2.865 12.897 7.147-8.317 5.602-15.478 12.755-21.074 21.075-4.269-2.712-7.113-7.503-7.113-12.931 0-8.438 6.852-15.291 15.29-15.291z" fill="#a05b2c" stroke="#010101" stroke-linecap="round" stroke-linejoin="round" stroke-width="4"/>
 <path d="m242.861,41.785c10.329-6.026 6.848-35.613 1.938-37.745-4.407,15.867-8.815,22.161-16.498,27.138 2.178-9.828.615-23.342-6.677-29.178 .739,8.4-1.884,21.043-10.683,29.662-2.388-9.097-3.063-19.628-12.037-23.207 2.204,10.73-.156,17.419-2.794,24.631" fill="#794522" stroke="#010101" stroke-linecap="round" stroke-linejoin="round" stroke-width="4"/>
 <path d="m275.002,126.971c.217-2.913.341-5.878.34-8.894v-.091c-.015-37.935-17.854-68.667-39.845-68.641-6.039.006-11.76,2.345-16.886,6.5-5.142-4.169-10.882-6.507-16.94-6.5-21.991.025-39.807,30.797-39.792,68.732v.092c.001,2.983.126,5.917.34,8.799-11.896,8.919-19.123,20.674-19.11,33.559v.067c.026,27.857 33.854,47.423 75.553,47.404s75.48-19.616 75.451-47.472v-.064c-.014-12.861-7.238-24.589-19.111-33.491z" fill="#a05b2c" stroke="#010101" stroke-linecap="round" stroke-linejoin="round" stroke-width="4"/>
 <path d="m163.61 148s20.625 27.5 55 27.5 55-27.5 55-27.5" fill="none" stroke="#010101" stroke-linecap="round" stroke-linejoin="round" stroke-width="4"/>
 <path d="m234.98 122.83c-2.293 3.974-6.501 5.84-9.397 4.167s-3.385-6.249-1.091-10.222 6.501-5.838 9.397-4.166 3.385 6.249 1.091 10.221z" fill="#010101"/>
 <path d="m202.24 122.83c2.293 3.974 6.501 5.84 9.397 4.167s3.385-6.249 1.091-10.222-6.501-5.838-9.397-4.166-3.385 6.249-1.091 10.221z" fill="#010101"/>
 <path d="m215.259,87.838c.008,11.501-9.309,20.831-20.811,20.838s-20.831-9.31-20.838-20.81v-.028c-.008-11.501 9.31-20.831 20.811-20.839s20.83,9.31 20.838,20.811v.028z" fill="#fff" stroke="#010101" stroke-linecap="round" stroke-linejoin="round" stroke-width="4"/>
 <path d="m207.12 90.232c2e-3 3.569-2.89 6.464-6.459 6.467s-6.464-2.889-6.467-6.458v-9e-3c-3e-3 -3.569 2.889-6.465 6.458-6.467s6.466 2.889 6.468 6.458v9e-3z" fill="#010101"/>
 <path d="m263.611,87.838c.008,11.501-9.309,20.831-20.811,20.838s-20.831-9.31-20.838-20.81v-.028c-.008-11.501 9.309-20.831 20.811-20.839s20.831,9.31 20.838,20.811v.028z" fill="#fff" stroke="#010101" stroke-linecap="round" stroke-linejoin="round" stroke-width="4"/>
 <path d="m242.55 90.232c0 3.569-2.891 6.464-6.46 6.467s-6.464-2.889-6.468-6.458v-9e-3c-1e-3 -3.569 2.891-6.465 6.459-6.467s6.465 2.889 6.469 6.458v9e-3z" fill="#010101"/>
 <path d="m247.58,275.997c2.805-13.632 16.412-20.055 30.869-20.055 16.533,0 29.951,13.418 29.951,29.95s-13.418,15.94-29.951,15.94c-5.504,0-21.311.283-25.217.283-8.24,0-14.928.295-14.928-7.945 0-6.809 3.039-16.384 9.276-18.173z" fill="#a05b2c" stroke="#010101" stroke-linecap="round" stroke-linejoin="round" stroke-width="4"/>
 <path d="m301.91 266.75c2.541 4.4 7.004 13.519 7.004 18.964 0 13.432-8.865 15.548-21.055 15.874 12.109-5.048 12.051-25.588 14.051-34.838z" fill="#010101" fill-opacity=".3137"/>
 <path d="m289.16 300.19c2.688-8.696-0.385-18.84-0.385-18.84" fill="none" stroke="#010101" stroke-linecap="round" stroke-width="4"/>
 <path d="m276.687,301.118c-3.295-14.01.471-25.119.471-25.119" fill="none" stroke="#010101" stroke-linecap="round" stroke-width="4"/>
 <path d="m264.62 300.67c-6.764-10.628-0.967-19.322-0.967-19.322" fill="none" stroke="#010101" stroke-linecap="round" stroke-width="4"/>
 <path d="m251.34 300.67c-6.764-9.33-0.967-16.961-0.967-16.961" fill="none" stroke="#010101" stroke-linecap="round" stroke-width="4"/>
 <path d="m248.08 277.72c-2.49 2.929-3.971 6.541-3.971 10.44 0 5.636 3.078 10.65 7.859 13.901-7.953-0.259-13.658-1.671-13.658-9.324 0-6.343 3.904-11.907 9.77-15.017z" fill="#010101" fill-opacity=".3137"/>
 <path d="m189.13,275.997c-2.805-13.632-16.413-20.055-30.87-20.055-16.532,0-29.95,13.418-29.95,29.95s13.418,15.94 29.95,15.94c5.505,0 21.311.283 25.218.283 8.24,0 14.927.295 14.927-7.945-.001-6.809-3.039-16.384-9.275-18.173z" fill="#a05b2c" stroke="#010101" stroke-linecap="round" stroke-linejoin="round" stroke-width="4"/>
 <path d="m147.552,300.187c-2.688-8.696.384-18.84.384-18.84" fill="none" stroke="#010101" stroke-linecap="round" stroke-width="4"/>
 <path d="m160.02 301.12c3.294-14.01-0.471-25.119-0.471-25.119" fill="none" stroke="#010101" stroke-linecap="round" stroke-width="4"/>
 <path d="m172.095,300.669c6.763-10.628.967-19.322.967-19.322" fill="none" stroke="#010101" stroke-linecap="round" stroke-width="4"/>
 <path d="m185.366,300.669c6.763-9.33.967-16.961.967-16.961" fill="none" stroke="#010101" stroke-linecap="round" stroke-width="4"/>
 <path d="m188.28 277.47c2.582 2.959 4.117 6.608 4.117 10.548 0 5.693-3.19 10.76-8.147 14.044 8.243-0.262 14.157-1.688 14.157-9.42 0-6.409-4.047-12.031-10.127-15.172z" fill="#010101" fill-opacity=".3137"/>
</svg>
